<svg xmlns="http://www.w3.org/2000/svg" width="68.875" height="68.875" viewBox="0 0 68.875 68.875">
  <path id="Icon_awesome-smile-wink" data-name="Icon awesome-smile-wink" d="M0,35A34.438,34.438,0,1,0,34.438.562,34.432,34.432,0,0,0,0,35Zm27.772-6.665a4.444,4.444,0,1,1-4.444-4.444A4.439,4.439,0,0,1,27.772,28.335Zm22.009,2.291c-2.055-1.833-6.415-1.833-8.471,0l-1.319,1.18a1.664,1.664,0,0,1-2.749-1.5c.555-3.5,4.749-5.846,8.318-5.846s7.762,2.347,8.318,5.846a1.664,1.664,0,0,1-2.749,1.5ZM21.912,44.692a16.316,16.316,0,0,0,25.051,0,2.223,2.223,0,0,1,3.416,2.847A20.756,20.756,0,0,1,18.5,47.525a2.219,2.219,0,0,1,3.416-2.833Z" transform="translate(0 -0.563)" fill="red"/>
</svg>
