<svg xmlns="http://www.w3.org/2000/svg" viewBox="0 0 100.25 100.23"><defs><style>.cls-1{fill:#231f20;}</style></defs><g id="Layer_2" data-name="Layer 2"><g id="Layer_1-2" data-name="Layer 1"><g id="Layer_2-2" data-name="Layer 2"><g id="Layer_1-2-2" data-name="Layer 1-2"><path class="cls-1" d="M62.46,0H37.77A37.82,37.82,0,0,0,0,37.77V62.46a37.82,37.82,0,0,0,37.77,37.77H62.46a37.84,37.84,0,0,0,37.79-37.77V37.77A37.84,37.84,0,0,0,62.46,0ZM93.91,62.46A31.48,31.48,0,0,1,62.46,93.89H37.77A31.47,31.47,0,0,1,6.34,62.46V37.77A31.48,31.48,0,0,1,37.77,6.34H62.46A31.49,31.49,0,0,1,93.91,37.77Z"/><path class="cls-1" d="M50.12,25.87A24.26,24.26,0,1,0,74.36,50.14v0A24.27,24.27,0,0,0,50.12,25.87Zm0,42.15A17.92,17.92,0,1,1,68,50.09v0A17.93,17.93,0,0,1,50.12,68Z"/><path class="cls-1" d="M77.29,16.85A6.11,6.11,0,1,0,83.4,23h0A6.11,6.11,0,0,0,77.29,16.85Z"/></g></g></g></g></svg>