<?xml version="1.0" encoding="utf-8"?>
<!-- Generator: Adobe Illustrator 24.3.0, SVG Export Plug-In . SVG Version: 6.00 Build 0)  -->
<svg version="1.1" id="Layer_1" xmlns="http://www.w3.org/2000/svg" xmlns:xlink="http://www.w3.org/1999/xlink" x="0px" y="0px"
	 viewBox="0 0 38.7 37.9" style="enable-background:new 0 0 38.7 37.9;" xml:space="preserve">
<style type="text/css">
	.st0{fill:#FFFFFF;stroke:#000000;stroke-miterlimit:10;}
</style>
<g id="Layer_2_1_">
	<g id="Layer_1-2">
		<path class="st0" d="M38.6,19.2c-1-3.2-2.7-5.4-5.2-6.6c-3.9-1.8-8.4-0.5-10.1,0.1v-1.1H12.9v26.4h10.4V22.7
			c0.7-0.9,1.7-1.4,2.8-1.4c0.9,0.1,1.6,0.6,2.1,1.4v15.3h10.5V19.3L38.6,19.2z M37.6,36.9h-8.4V22.4l-0.1-0.1
			c-0.7-1-1.7-1.7-2.9-1.9c-1.5,0-2.9,0.7-3.8,1.8l-0.1,0.1v14.6h-8.4V12.6h8.4v1.6l0.7-0.3c0,0,5.6-2.4,10-0.4
			c2.3,1.2,4,3.4,4.6,5.9L37.6,36.9z"/>
		<path class="st0" d="M12,6c0-3.3-2.7-6-6-6S0,2.7,0,6c0,2.4,1.5,4.6,3.7,5.6H0v26.4h12V11.6H8.3C10.5,10.6,12,8.4,12,6z M11,36.9
			H1V12.6h10V36.9z M6,11c-2.8,0-5-2.2-5-5s2.2-5,5-5s5,2.2,5,5S8.8,11,6,11z"/>
	</g>
</g>
</svg>
