<svg xmlns="http://www.w3.org/2000/svg" viewBox="0 0 9.09 7.87"><defs><style>.cls-1{fill:red;}.cls-2{fill:#f99d1c;}.cls-3{opacity:0.4;}.cls-4{font-size:1.52px;font-family:Helvetica;}</style></defs><g id="Layer_2" data-name="Layer 2"><g id="Layer_1-2" data-name="Layer 1"><ellipse class="cls-1" cx="4.55" cy="2.72" rx="1.95" ry="2.49"/><path class="cls-1" d="M2.6,2.72A2.74,2.74,0,0,1,4.55.23,3.7,3.7,0,0,0,3.25,0,3,3,0,0,0,0,2.72,3,3,0,0,0,3.25,5.44a3.7,3.7,0,0,0,1.3-.23A2.75,2.75,0,0,1,2.6,2.72Z"/><path class="cls-2" d="M5.85,0a3.62,3.62,0,0,0-1.3.23A2.74,2.74,0,0,1,6.49,2.72,2.76,2.76,0,0,1,4.55,5.21a3.62,3.62,0,0,0,1.3.23A3,3,0,0,0,9.09,2.72,3,3,0,0,0,5.85,0Z"/><g class="cls-3"><ellipse class="cls-2" cx="4.55" cy="2.72" rx="1.95" ry="2.49"/></g><text class="cls-4" transform="translate(0 7.13) scale(1.19 1)">mastercard</text></g></g></svg>