<svg xmlns="http://www.w3.org/2000/svg" viewBox="0 0 330.76 134.3"><defs><style>.cls-1{fill:#253b80;}.cls-2{fill:#169bd7;}</style></defs><g id="Layer_2" data-name="Layer 2"><g id="Layer_1-2" data-name="Layer 1"><path class="cls-1" d="M11,10.56A2.06,2.06,0,0,1,13.1,8.75h17q12.35,0,18.77,4.11a22.93,22.93,0,0,1,8.23,9.34,29.54,29.54,0,0,1,3,13.09,28.73,28.73,0,0,1-5.6,17.59Q46.22,64.18,28.31,64.16H20A2.05,2.05,0,0,0,18,66L13.84,100a2.05,2.05,0,0,1-2.06,1.81H2.07a2.05,2.05,0,0,1-2.07-2,2.26,2.26,0,0,1,0-.26Zm12.35,11-3.68,30.3h9c5.68,0,10-1.44,13-4.36A16.62,16.62,0,0,0,46.29,35q0-13.29-17-13.31Z"/><path class="cls-1" d="M115.82,47.33,109.34,100a2.06,2.06,0,0,1-2.06,1.81H98.12a2.05,2.05,0,0,1-2.07-2,2.28,2.28,0,0,1,0-.26l.49-3.85a26.72,26.72,0,0,1-17.72,7.49A24,24,0,0,1,60.45,95.5a28,28,0,0,1-7.12-19.84,32.91,32.91,0,0,1,8.23-23,27.45,27.45,0,0,1,21.15-9A24.44,24.44,0,0,1,93,45.7a29,29,0,0,1,8.87,6.87l.68-5.68a2.07,2.07,0,0,1,2.06-1.81h9.17a2.06,2.06,0,0,1,2,2.07A1.09,1.09,0,0,1,115.82,47.33ZM99.89,71.79a17.2,17.2,0,0,0-4.34-12.12A14.39,14.39,0,0,0,84.38,54.8a15.94,15.94,0,0,0-12.53,5.84A21.51,21.51,0,0,0,66.79,75,17.68,17.68,0,0,0,70.9,87.39a13.82,13.82,0,0,0,10.85,4.77,16.6,16.6,0,0,0,12.71-6A21,21,0,0,0,99.89,71.79Z"/><path class="cls-1" d="M188.85,48.11l-49.06,85.17a2.05,2.05,0,0,1-1.79,1H127.59a2,2,0,0,1-2-2.07,2,2,0,0,1,.27-1l21-36.46-19.16-46.9a2.05,2.05,0,0,1,1.12-2.68,2,2,0,0,1,.84-.16h9.75a2.07,2.07,0,0,1,1.92,1.32l13.54,35,19.95-35.25a2.06,2.06,0,0,1,1.79-1h10.5a2.07,2.07,0,0,1,1.75,3.09Z"/><path class="cls-2" d="M200.86,10.56a2.06,2.06,0,0,1,2.06-1.81H220q12.35,0,18.75,4.11A22.67,22.67,0,0,1,247,22.2a29.53,29.53,0,0,1,3,13.09,28.75,28.75,0,0,1-5.62,17.59q-8.22,11.29-26.21,11.28H209.9A2.06,2.06,0,0,0,207.84,66L203.72,100a2,2,0,0,1-2.05,1.81H192a2.06,2.06,0,0,1-2.08-2,2.28,2.28,0,0,1,0-.26Zm12.35,11-3.74,30.3h9a18,18,0,0,0,13-4.36A16.69,16.69,0,0,0,236.11,35q0-13.29-17-13.31Z"/><path class="cls-2" d="M305.66,47.33,299.18,100a2.06,2.06,0,0,1-2.06,1.81H288a2.06,2.06,0,0,1-2.08-2,2.28,2.28,0,0,1,0-.26l.47-3.85a26.7,26.7,0,0,1-17.71,7.49,24,24,0,0,1-18.4-7.65,28,28,0,0,1-7.1-19.84,33,33,0,0,1,8.13-23,27.49,27.49,0,0,1,21.17-9,24.28,24.28,0,0,1,10.29,2.06,28.85,28.85,0,0,1,8.87,6.87l.68-5.68a2.07,2.07,0,0,1,2.06-1.81h9.15a2.06,2.06,0,0,1,2.15,2A2.72,2.72,0,0,1,305.66,47.33ZM289.72,71.77a17.34,17.34,0,0,0-4.33-12.22,14.38,14.38,0,0,0-11.21-4.77,15.91,15.91,0,0,0-12.55,5.84A21.46,21.46,0,0,0,256.57,75a17.69,17.69,0,0,0,4.11,12.35,13.88,13.88,0,0,0,10.95,4.75,16.56,16.56,0,0,0,12.71-6,21,21,0,0,0,5.38-14.36Z"/><path class="cls-2" d="M330.75,2.3l-12,97.7a2.06,2.06,0,0,1-2.06,1.81h-9.18a2.05,2.05,0,0,1-2.07-2,2.28,2.28,0,0,1,0-.26l12.08-97.7A2,2,0,0,1,319.61,0h9.12a2.06,2.06,0,0,1,2,2.08C330.76,2.16,330.75,2.23,330.75,2.3Z"/></g></g></svg>