<?xml version="1.0" encoding="utf-8"?>
<!-- Generator: Adobe Illustrator 24.3.0, SVG Export Plug-In . SVG Version: 6.00 Build 0)  -->
<svg version="1.1" id="Layer_1" xmlns="http://www.w3.org/2000/svg" xmlns:xlink="http://www.w3.org/1999/xlink" x="0px" y="0px"
	 viewBox="0 0 42.9 34.6" style="enable-background:new 0 0 42.9 34.6;" xml:space="preserve">
<style type="text/css">
	.st0{fill:none;stroke:#000000;stroke-miterlimit:10;}
</style>
<g id="Layer_2_1_">
	<g id="Layer_1-2">
		<path class="st0" d="M42.9,4.1l-4.2,1.2L42,0.8L36.8,3l-0.8-0.7c-10.6-7-14.6,3.8-14.6,3.8c-1,0.7-0.7,4.5-0.7,4.5
			c-10.7-0.5-18.1-9-18.1-9c-2.1,4-1,8.8,2.5,11.6c-1.3-0.1-2.5-0.4-3.7-1.1c0,7,6.5,9,6.5,9H4.7c2,5.3,7.8,6.2,7.8,6.2
			C8.8,29.8,4.4,31.1,0,30.9c8.5,5.3,18.1,3.3,18.1,3.3c21.5-4.2,21-26,21-26C40.7,7.2,42.9,4.1,42.9,4.1z"/>
	</g>
</g>
</svg>
