<svg xmlns="http://www.w3.org/2000/svg" viewBox="0 0 32.09 18"><defs><style>.cls-1{fill:#10357f;}.cls-2{fill:#fcb316;}</style></defs><g id="Layer_2" data-name="Layer 2"><g id="Layer_1-2" data-name="Layer 1"><path class="cls-1" d="M14.92,4.27l-1.79,9.44h-2l1.79-9.44Z"/><path class="cls-1" d="M16.4,11.52a4.4,4.4,0,0,0,2.23.6c.79,0,1.5-.36,1.5-1.1,0-.54-.41-.88-1.28-1.34a3,3,0,0,1-2-2.5c0-1.91,1.66-3.06,3.72-3.06a4.69,4.69,0,0,1,2.23.46l-.64,1.69a3.74,3.74,0,0,0-1.75-.42c-.95,0-1.44.47-1.44,1s.58.89,1.38,1.34a2.83,2.83,0,0,1,1.87,2.49c0,2.1-1.74,3.18-3.84,3.18a4.85,4.85,0,0,1-2.7-.67Z"/><path class="cls-1" d="M26.65,11.26l-1.11,2.45H23.39l4.33-8.88a1,1,0,0,1,.9-.56h2l1.1,9.44H29.57l-.19-2.45Zm2.64-1.54-.19-2c0-.51-.08-1.27-.13-1.85h0c-.24.58-.5,1.31-.76,1.85l-.93,2Z"/><path class="cls-1" d="M8.6,4.49,6.49,8.76c-.47.93-.91,1.89-1.27,2.77h0c-.05-.93-.12-1.8-.22-2.76L4.63,5.35a1,1,0,0,0-1-.86H0V5L2.66,6l1,7.51H6l4.87-9Z"/><rect class="cls-1" x="0.09" width="32" height="2"/><rect class="cls-2" x="0.09" y="16" width="32" height="2"/></g></g></svg>