<svg xmlns="http://www.w3.org/2000/svg" viewBox="0 0 47.49 34.23"><defs><style>.cls-1{fill:none;}</style></defs><g id="Layer_2" data-name="Layer 2"><g id="Layer_1-2" data-name="Layer 1"><polygon class="cls-1" points="19.69 21.45 29.46 16.15 19.69 10.84 19.69 21.45"/><path class="cls-1" d="M37.5,2H10a8,8,0,0,0-8,8V24.24a8,8,0,0,0,8,8H37.5a8,8,0,0,0,8-8V10A8,8,0,0,0,37.5,2ZM32,17,19.17,24a.94.94,0,0,1-.47.12.88.88,0,0,1-.5-.14,1,1,0,0,1-.49-.85V9.18a1,1,0,0,1,.49-.85,1,1,0,0,1,1,0l12.82,7a1,1,0,0,1,.52.87A1,1,0,0,1,32,17Z"/><path d="M37.5,0H10A10,10,0,0,0,0,10V24.24a10,10,0,0,0,10,10H37.5a10,10,0,0,0,10-10V10A10,10,0,0,0,37.5,0Zm8,24.24a8,8,0,0,1-8,8H10a8,8,0,0,1-8-8V10a8,8,0,0,1,8-8H37.5a8,8,0,0,1,8,8Z"/><path d="M32,15.28l-12.82-7a1,1,0,0,0-1,0,1,1,0,0,0-.49.85V23.11a1,1,0,0,0,.49.85.88.88,0,0,0,.5.14.94.94,0,0,0,.47-.12L32,17a1,1,0,0,0,.52-.87A1,1,0,0,0,32,15.28ZM19.69,21.45V10.84l9.77,5.31Z"/></g></g></svg>